<svg xmlns="http://www.w3.org/2000/svg" xmlns:xlink="http://www.w3.org/1999/xlink" id="&#x421;&#x43B;&#x43E;&#x439;_1" x="0px" y="0px" viewBox="0 0 200 100" style="enable-background:new 0 0 200 100;" xml:space="preserve"> <style type="text/css"> .st0{fill:#076CB3;} </style> <g> <g> <path class="st0" d="M65.2,36.8c-5.6,1.6-10.2,2.1-14.2,1.8c2.4,21.3-8.6,49.4-8.6,49.4S88.4,29.9,65.2,36.8z M30.2,15.2 c0,0,1.3,21.6,20.7,23.3C49.6,26.6,44.1,16.9,30.2,15.2z M64.4,32.2c4.1,0,7.3-4.5,7.3-10.1c0-5.6-3.3-10.1-7.3-10.1 c-4.1,0-7.3,4.5-7.3,10.1C57,27.7,60.3,32.2,64.4,32.2z"></path> <path class="st0" d="M5.2,45.4c0,0,9,13.1,21.8,6.8C21.7,45.2,14.5,41.1,5.2,45.4z M35.3,45.6c-2.9,3.1-5.6,5.2-8.2,6.5 c9.6,12.5,13.4,34.2,13.4,34.2S47.2,32.5,35.3,45.6z M33,43.1c2.5-1.5,2.9-5.6,0.8-9.1c-2.1-3.5-5.9-5.1-8.4-3.6 c-2.5,1.5-2.9,5.6-0.8,9.1C26.7,43,30.5,44.6,33,43.1z"></path> <path class="st0" d="M0,74.5c0,0,10.8,4.2,16-4.9C9.9,67.6,3.9,68,0,74.5z M18.3,62.3c-0.4,3.1-1.3,5.5-2.3,7.3 c10.9,3.6,22.2,15.3,22.2,15.3S20.2,49.4,18.3,62.3z M9.3,62.9c2.7,1.3,5.7,0.7,6.6-1.3c0.9-2-0.6-4.6-3.3-5.9 C9.9,54.5,7,55.1,6,57.1C5.1,59,6.6,61.7,9.3,62.9z"></path> </g> <g> <g> <path class="st0" d="M95,79.9v1.6h-2.7v6.3h-2v-6.3h-2.7v-1.6H95z"></path> <path class="st0" d="M106.2,83.9c0,2.5-1.8,4.2-4.8,4.2c-2.9,0-4.8-1.7-4.8-4.2c0-2.5,1.8-4.2,4.8-4.2 C104.4,79.7,106.2,81.3,106.2,83.9z M98.9,83.9c0,1.6,1,2.6,2.6,2.6s2.6-1,2.6-2.6c0-1.6-1-2.6-2.6-2.6S98.9,82.3,98.9,83.9z"></path> <path class="st0" d="M121,79.9v1.6h-4.8V83h4.4v1.6h-4.4v3.2h-2v-8H121z"></path> <path class="st0" d="M125.5,79.9v4.3c0,1.5,0.6,2.3,2.1,2.3c1.6,0,2.1-0.9,2.1-2.2v-4.4h2v4.5c0,2.4-1.4,3.7-4.1,3.7 c-2.7,0-4.1-1.3-4.1-3.7v-4.5H125.5z"></path> <path class="st0" d="M141.3,79.9v1.6h-2.7v6.3h-2v-6.3h-2.7v-1.6H141.3z"></path> <path class="st0" d="M145.5,79.9v4.3c0,1.5,0.6,2.3,2.1,2.3c1.6,0,2.1-0.9,2.1-2.2v-4.4h2v4.5c0,2.4-1.4,3.7-4.1,3.7 s-4.1-1.3-4.1-3.7v-4.5H145.5z"></path> <path class="st0" d="M154.7,79.9h4.9c2.1,0,3.1,0.6,3.1,2.1c0,0.9-0.5,1.7-1.3,2c0.9,0.4,1,0.8,1,1.7c0,1,0,1.7,0.4,2.1h-2.2 c-0.1-0.2-0.2-0.4-0.2-0.6v-0.5c0-1.4-0.2-1.8-1.4-1.8h-2.3v2.9h-2V79.9z M156.7,83.3h2.3c1.1,0,1.6-0.2,1.6-0.9 c0-0.8-0.6-0.8-1.7-0.8h-2.2V83.3z"></path> <path class="st0" d="M172.6,79.9v1.6h-5.1v1.3h4.5v1.6h-4.5v1.7h5.1v1.6h-7.1v-8H172.6z"></path> <path class="st0" d="M182.7,79.9v4.3c0,1.5,0.6,2.3,2.1,2.3c1.6,0,2.1-0.9,2.1-2.2v-4.4h2v4.5c0,2.4-1.4,3.7-4.1,3.7 c-2.7,0-4.1-1.3-4.1-3.7v-4.5H182.7z"></path> <path class="st0" d="M194.5,79.9h1.9l3.6,8h-2.2l-0.7-1.7h-3.5l-0.7,1.7h-2.2L194.5,79.9z M196.3,84.5l-1.1-2.5l-1,2.5H196.3z"></path> </g> <g> <path class="st0" d="M92.2,38.1l8.7,27.3l8.5-27.3h5.1l8.5,27.3l8.7-27.3h4.7l-10.5,31.2h-5.2l-8.7-26.9l-8.6,26.9H98L87.5,38.1 H92.2z"></path> <path class="st0" d="M151.6,38.1h4.6l13.9,31.2h-4.6l-4-8.9h-16l-4.1,8.9h-4.7L151.6,38.1z M159.7,56.3l-6-13.3l-6.3,13.3H159.7z "></path> <path class="st0" d="M173.1,38.1l10.8,14.5l10.9-14.5h5.3l-13.9,18.2v13h-4.4v-13l-14-18.2H173.1z"></path> </g> </g> </g> </svg>